<svg width="404" height="404" viewBox="0 0 404 404" fill="none" xmlns="http://www.w3.org/2000/svg">
<circle cx="201.756" cy="201.756" r="201.756" fill="url(#paint0_linear_3553_123)"/>
<circle cx="317.699" cy="56.2329" r="50.0352" fill="black"/>
<circle cx="317.698" cy="56.2328" r="37.8371" fill="black" stroke="#17FFDB" stroke-width="6.37391"/>
<path d="M293.75 55.5216L311.535 70.6981L341.888 41.7678" stroke="#17FFDB" stroke-width="6.37391"/>
<path d="M160.038 341.517H133.387C124.646 341.517 117.531 334.403 117.531 325.661C117.531 316.92 124.646 309.8 133.387 309.8C133.662 309.8 133.931 309.805 134.206 309.82C134.72 309.849 135.112 310.29 135.083 310.805C135.053 311.319 134.622 311.716 134.098 311.682C133.863 311.667 133.622 311.662 133.387 311.662C125.67 311.662 119.393 317.944 119.393 325.661C119.393 333.378 125.67 339.655 133.387 339.655H160.038C165.991 339.655 170.832 334.814 170.832 328.861C170.832 324.23 167.887 320.124 163.507 318.645C163.066 318.498 162.806 318.047 162.89 317.591C162.978 317.121 163.022 316.626 163.022 316.126C163.022 311.613 159.352 307.938 154.839 307.938C154.28 307.938 153.727 307.992 153.188 308.105C152.825 308.183 152.433 308.026 152.227 307.718C150.454 305.121 147.509 303.568 144.358 303.568C142.751 303.568 141.163 303.974 139.772 304.739C139.321 304.989 138.758 304.822 138.508 304.371C138.258 303.92 138.424 303.357 138.875 303.107C140.541 302.186 142.437 301.701 144.363 301.701C147.925 301.701 151.267 303.362 153.413 306.174C153.884 306.106 154.364 306.071 154.844 306.071C160.381 306.071 164.889 310.579 164.889 316.121C164.889 316.469 164.869 316.812 164.835 317.145C169.568 319.076 172.699 323.686 172.699 328.856C172.699 335.833 167.02 341.512 160.043 341.512L160.038 341.517Z" fill="white"/>
<path d="M135.254 311.731C132.926 311.731 130.609 311.138 128.512 309.962C124.508 307.713 121.902 303.627 121.534 299.04C121.505 298.663 121.706 298.305 122.044 298.134C126.15 296.066 130.991 296.179 134.994 298.428C138.997 300.677 141.604 304.758 141.976 309.34C142.006 309.717 141.805 310.075 141.467 310.246C139.507 311.236 137.375 311.731 135.249 311.731H135.254ZM123.46 299.525C123.955 303.235 126.15 306.498 129.423 308.34C132.701 310.183 136.631 310.364 140.056 308.855C139.556 305.15 137.361 301.892 134.088 300.05C130.814 298.207 126.885 298.026 123.465 299.525H123.46Z" fill="white"/>
<path d="M135.481 317.292C136.128 317.458 136.451 317.87 136.451 318.527V318.556C136.451 318.973 136.285 319.311 135.947 319.57C135.721 319.747 135.476 319.835 135.207 319.835C135.094 319.835 134.976 319.82 134.859 319.791C134.388 319.673 133.913 319.61 133.433 319.61C131.87 319.61 130.537 320.163 129.435 321.266C128.332 322.368 127.779 323.706 127.779 325.279C127.779 326.852 128.332 328.184 129.435 329.292C130.537 330.389 131.875 330.938 133.433 330.938C133.913 330.938 134.388 330.879 134.859 330.771C134.976 330.742 135.094 330.727 135.207 330.727C135.471 330.727 135.721 330.816 135.947 330.992C136.285 331.247 136.451 331.585 136.451 332.006V332.026C136.451 332.687 136.128 333.104 135.481 333.27C134.815 333.437 134.129 333.525 133.433 333.525C131.159 333.525 129.219 332.722 127.607 331.11C125.995 329.498 125.191 327.557 125.191 325.284C125.191 323.01 125.995 321.07 127.607 319.458C129.219 317.846 131.159 317.042 133.433 317.042C134.129 317.042 134.81 317.125 135.481 317.297V317.292Z" fill="white"/>
<path d="M152.009 319.458C153.621 321.07 154.425 323.01 154.425 325.284C154.425 327.557 153.621 329.498 152.009 331.11C150.392 332.722 148.447 333.525 146.173 333.525C143.9 333.525 141.959 332.722 140.347 331.11C138.735 329.498 137.932 327.557 137.932 325.284C137.932 323.01 138.735 321.07 140.347 319.458C141.959 317.846 143.9 317.042 146.173 317.042C148.447 317.042 150.392 317.846 152.009 319.458ZM142.17 321.271C141.068 322.373 140.514 323.711 140.514 325.284C140.514 326.856 141.068 328.189 142.17 329.297C143.273 330.394 144.61 330.943 146.168 330.943C147.727 330.943 149.074 330.394 150.181 329.297C151.284 328.194 151.838 326.856 151.838 325.284C151.838 323.711 151.284 322.378 150.181 321.271C149.079 320.163 147.741 319.614 146.168 319.614C144.595 319.614 143.273 320.168 142.17 321.271Z" fill="white"/>
<path d="M156.354 311.011C156.893 311.011 157.353 311.202 157.735 311.584C158.118 311.966 158.309 312.427 158.309 312.961C158.309 313.431 158.118 313.862 157.74 314.244C157.52 314.475 157.123 314.764 156.559 315.112C156.001 315.465 155.623 315.734 155.423 315.925C155.099 316.248 154.937 316.552 154.937 316.841H157.824C157.975 316.841 158.098 316.895 158.201 317.003C158.309 317.111 158.363 317.238 158.363 317.385V317.395C158.363 317.547 158.309 317.669 158.201 317.772C158.098 317.88 157.975 317.934 157.824 317.934H154.359C154.217 317.934 154.09 317.88 153.982 317.772C153.874 317.669 153.82 317.547 153.82 317.395V316.979C153.82 316.435 154.007 315.945 154.384 315.504C154.639 315.205 155.04 314.881 155.584 314.534C156.241 314.107 156.628 313.848 156.746 313.759C157.069 313.49 157.231 313.225 157.231 312.961C157.231 312.721 157.147 312.52 156.976 312.348C156.804 312.177 156.599 312.093 156.358 312.093H154.575C154.428 312.093 154.301 312.039 154.193 311.937C154.085 311.829 154.031 311.701 154.031 311.554V311.545C154.031 311.398 154.085 311.27 154.193 311.162C154.301 311.06 154.428 311.006 154.575 311.006H156.358L156.354 311.011Z" fill="white"/>
<path d="M231.485 341.517H204.835C196.093 341.517 188.979 334.403 188.979 325.661C188.979 316.92 196.093 309.8 204.835 309.8C205.109 309.8 205.378 309.805 205.653 309.82C206.167 309.849 206.559 310.29 206.53 310.805C206.501 311.319 206.064 311.716 205.545 311.682C205.31 311.667 205.07 311.662 204.835 311.662C197.117 311.662 190.84 317.944 190.84 325.661C190.84 333.379 197.117 339.655 204.835 339.655H231.485C237.438 339.655 242.28 334.814 242.28 328.861C242.28 324.231 239.335 320.125 234.954 318.645C234.513 318.498 234.254 318.047 234.337 317.591C234.425 317.121 234.469 316.626 234.469 316.126C234.469 311.613 230.799 307.938 226.286 307.938C225.728 307.938 225.174 307.992 224.635 308.105C224.272 308.183 223.88 308.027 223.675 307.718C221.901 305.121 218.956 303.568 215.805 303.568C214.198 303.568 212.611 303.974 211.219 304.739C210.768 304.989 210.205 304.822 209.955 304.371C209.705 303.921 209.872 303.357 210.322 303.107C211.988 302.186 213.885 301.701 215.81 301.701C219.373 301.701 222.714 303.362 224.86 306.175C225.331 306.106 225.811 306.072 226.291 306.072C231.828 306.072 236.336 310.58 236.336 316.121C236.336 316.469 236.316 316.812 236.282 317.145C241.015 319.076 244.141 323.687 244.141 328.856C244.141 335.834 238.463 341.513 231.485 341.513V341.517Z" fill="white"/>
<path d="M206.702 311.731C204.375 311.731 202.057 311.138 199.965 309.962C195.961 307.713 193.355 303.627 192.987 299.04C192.958 298.663 193.159 298.305 193.497 298.134C197.603 296.066 202.449 296.179 206.447 298.428C210.45 300.677 213.062 304.758 213.43 309.34C213.459 309.717 213.258 310.075 212.92 310.246C210.96 311.236 208.829 311.731 206.702 311.731ZM194.908 299.525C195.403 303.235 197.598 306.498 200.871 308.34C204.149 310.183 208.079 310.364 211.504 308.855C211.004 305.15 208.809 301.892 205.531 300.05C202.258 298.207 198.328 298.026 194.908 299.525Z" fill="white"/>
<path d="M227.801 311.011C228.34 311.011 228.8 311.202 229.183 311.584C229.565 311.966 229.756 312.427 229.756 312.961C229.756 313.431 229.565 313.862 229.187 314.245C228.967 314.475 228.57 314.764 228.007 315.112C227.448 315.465 227.071 315.734 226.87 315.925C226.546 316.249 226.385 316.553 226.385 316.842H229.271C229.423 316.842 229.545 316.896 229.648 317.003C229.756 317.111 229.81 317.239 229.81 317.386V317.395C229.81 317.547 229.756 317.67 229.648 317.773C229.545 317.88 229.423 317.934 229.271 317.934H225.807C225.664 317.934 225.537 317.88 225.429 317.773C225.321 317.67 225.268 317.547 225.268 317.395V316.979C225.268 316.435 225.454 315.945 225.831 315.504C226.086 315.205 226.488 314.882 227.032 314.534C227.688 314.107 228.075 313.848 228.193 313.76C228.516 313.49 228.678 313.226 228.678 312.961C228.678 312.721 228.595 312.52 228.423 312.348C228.252 312.177 228.046 312.094 227.806 312.094H226.022C225.875 312.094 225.748 312.04 225.64 311.937C225.532 311.829 225.478 311.702 225.478 311.555V311.545C225.478 311.398 225.532 311.27 225.64 311.163C225.748 311.06 225.875 311.006 226.022 311.006H227.806L227.801 311.011Z" fill="white"/>
<path d="M202.194 319.546C201.581 319.546 201.057 319.762 200.631 320.188C200.205 320.615 199.989 321.139 199.989 321.751C199.989 322.481 200.322 323.03 200.984 323.412C201.278 323.579 202.135 323.863 203.566 324.28C204.786 324.642 205.678 325.083 206.241 325.598C207.084 326.362 207.505 327.435 207.505 328.822C207.505 330.209 207.025 331.311 206.07 332.257C205.119 333.207 203.977 333.683 202.645 333.683H198.568C198.22 333.683 197.916 333.555 197.657 333.295C197.397 333.036 197.27 332.737 197.27 332.384V332.32C197.27 331.972 197.397 331.669 197.657 331.409C197.916 331.149 198.215 331.022 198.568 331.022H202.753C203.36 331.022 203.879 330.806 204.316 330.38C204.742 329.954 204.957 329.429 204.957 328.817C204.957 328.102 204.624 327.548 203.963 327.146C203.649 326.96 202.787 326.646 201.371 326.205C200.151 325.804 199.264 325.353 198.705 324.848C197.862 324.093 197.441 323.06 197.441 321.756C197.441 320.453 197.916 319.267 198.867 318.321C199.817 317.376 200.964 316.896 202.302 316.896H205.183C205.541 316.896 205.844 317.023 206.104 317.283C206.364 317.542 206.476 317.836 206.476 318.194V318.258C206.476 318.606 206.354 318.909 206.104 319.169C205.849 319.424 205.541 319.556 205.183 319.556H202.194V319.546Z" fill="white"/>
<path d="M223.39 319.404C225.026 321.041 225.84 323.01 225.84 325.313C225.84 327.616 225.021 329.591 223.39 331.223C221.748 332.859 219.773 333.673 217.471 333.673C215.168 333.673 213.193 332.854 211.561 331.223C209.925 329.586 209.111 327.616 209.111 325.313C209.111 323.01 209.93 321.036 211.561 319.404C213.198 317.767 215.168 316.954 217.471 316.954C219.773 316.954 221.748 317.772 223.39 319.404ZM213.409 321.246C212.286 322.368 211.728 323.721 211.728 325.313C211.728 326.906 212.286 328.263 213.409 329.38C214.531 330.492 215.883 331.051 217.466 331.051C219.048 331.051 220.415 330.492 221.533 329.38C222.655 328.258 223.213 326.906 223.213 325.313C223.213 323.721 222.655 322.364 221.533 321.246C220.41 320.129 219.058 319.566 217.466 319.566C215.873 319.566 214.531 320.124 213.409 321.246Z" fill="white"/>
<path d="M294.813 341.517H268.163C259.421 341.517 252.307 334.403 252.307 325.661C252.307 316.92 259.421 309.8 268.163 309.8C268.437 309.8 268.707 309.805 268.981 309.82C269.495 309.849 269.887 310.29 269.858 310.805C269.829 311.319 269.373 311.721 268.873 311.682C268.638 311.667 268.398 311.662 268.163 311.662C260.445 311.662 254.169 317.944 254.169 325.661C254.169 333.379 260.445 339.655 268.163 339.655H294.813C300.767 339.655 305.608 334.814 305.608 328.861C305.608 324.231 302.663 320.125 298.282 318.645C297.846 318.498 297.582 318.047 297.665 317.596C297.753 317.126 297.797 316.631 297.797 316.126C297.797 311.613 294.127 307.938 289.614 307.938C289.056 307.938 288.502 307.992 287.963 308.105C287.601 308.183 287.209 308.027 287.003 307.718C285.229 305.121 282.284 303.568 279.134 303.568C277.526 303.568 275.939 303.974 274.547 304.739C274.096 304.989 273.533 304.822 273.283 304.371C273.033 303.921 273.2 303.357 273.651 303.107C275.317 302.186 277.213 301.701 279.138 301.701C282.701 301.701 286.042 303.362 288.189 306.175C288.659 306.106 289.139 306.072 289.619 306.072C295.156 306.072 299.664 310.58 299.664 316.121C299.664 316.464 299.644 316.807 299.61 317.145C304.343 319.076 307.47 323.687 307.47 328.856C307.47 335.834 301.791 341.513 294.813 341.513V341.517Z" fill="white"/>
<path d="M270.03 311.731C267.703 311.731 265.385 311.138 263.293 309.962C259.29 307.713 256.683 303.627 256.315 299.04C256.286 298.663 256.487 298.305 256.825 298.134C260.931 296.066 265.777 296.179 269.775 298.428C273.779 300.677 276.39 304.758 276.758 309.34C276.787 309.717 276.586 310.075 276.248 310.246C274.288 311.236 272.157 311.731 270.03 311.731ZM258.241 299.525C258.736 303.235 260.931 306.498 264.204 308.34C267.482 310.183 271.412 310.364 274.837 308.855C274.337 305.15 272.142 301.892 268.864 300.05C265.591 298.207 261.661 298.026 258.241 299.525Z" fill="white"/>
<path d="M273.933 319.894C275.545 321.506 276.348 323.447 276.348 325.72C276.348 327.994 275.545 329.934 273.933 331.546C272.316 333.158 270.371 333.962 268.097 333.962C265.824 333.962 263.883 333.158 262.271 331.546C260.659 329.934 259.855 327.994 259.855 325.72C259.855 323.447 260.659 321.506 262.271 319.894C263.883 318.282 265.824 317.479 268.097 317.479C270.371 317.479 272.316 318.282 273.933 319.894ZM264.099 321.707C262.996 322.81 262.443 324.148 262.443 325.72C262.443 327.293 262.996 328.626 264.099 329.733C265.201 330.831 266.539 331.38 268.097 331.38C269.655 331.38 271.003 330.831 272.11 329.733C273.213 328.631 273.766 327.293 273.766 325.72C273.766 324.148 273.213 322.815 272.11 321.707C271.008 320.6 269.67 320.051 268.097 320.051C266.524 320.051 265.201 320.605 264.099 321.707Z" fill="white"/>
<path d="M282.402 326.837C283.167 326.837 283.818 327.107 284.362 327.646C284.901 328.185 285.171 328.837 285.171 329.601C285.171 330.463 284.901 331.12 284.362 331.576C284.999 332.061 285.318 332.786 285.318 333.741C285.318 334.54 285.034 335.226 284.465 335.794C283.897 336.363 283.211 336.647 282.407 336.647H280.648C280.442 336.647 280.266 336.574 280.114 336.422C279.962 336.28 279.889 336.103 279.889 335.888V335.873C279.889 335.662 279.962 335.486 280.114 335.334C280.266 335.182 280.442 335.108 280.648 335.108H282.407C282.789 335.108 283.113 334.976 283.382 334.712C283.647 334.442 283.779 334.119 283.779 333.736C283.779 333.354 283.647 333.031 283.382 332.761C283.113 332.492 282.789 332.36 282.407 332.36H280.923C280.712 332.36 280.535 332.286 280.384 332.134C280.232 331.982 280.163 331.811 280.163 331.6V331.585C280.163 331.375 280.237 331.198 280.384 331.046C280.535 330.899 280.717 330.826 280.923 330.826H282.407C282.745 330.821 283.034 330.703 283.275 330.468C283.515 330.228 283.632 329.939 283.632 329.596C283.632 329.253 283.515 328.969 283.275 328.729C283.034 328.489 282.74 328.366 282.407 328.366H280.648C280.442 328.366 280.266 328.293 280.114 328.146C279.962 327.994 279.889 327.812 279.889 327.607V327.592C279.889 327.381 279.962 327.205 280.114 327.053C280.266 326.906 280.442 326.833 280.648 326.833H282.407L282.402 326.837Z" fill="white"/>
<path d="M85.8599 343.386C85.5953 343.386 85.3356 343.386 85.071 343.371C84.6741 343.356 84.3311 343.092 84.2135 342.715C84.0959 342.337 84.2331 341.926 84.5516 341.691L90.1032 337.629C90.5197 337.325 91.1028 337.413 91.4066 337.829C91.7104 338.246 91.6222 338.829 91.2057 339.133L88.0942 341.406C96.0566 340.578 103.044 335.365 106.028 327.77C109.659 318.514 106.552 308.014 98.4722 302.242C98.0557 301.943 97.9577 301.36 98.2566 300.943C98.5555 300.527 99.1386 300.429 99.5551 300.727C108.331 306.999 111.702 318.396 107.762 328.451C104.225 337.462 95.4931 343.386 85.8648 343.386H85.8599Z" fill="white"/>
<path d="M71.6461 338.354C71.4403 338.354 71.2345 338.285 71.063 338.148C63.0517 331.67 60.1999 320.871 63.963 311.272C66.6482 304.432 72.2389 299.326 79.3046 297.273C79.6721 297.165 80.069 297.298 80.3042 297.601C80.5394 297.905 80.5639 298.322 80.363 298.65L77.2025 303.898C76.9379 304.339 76.3647 304.481 75.9237 304.216C75.4827 303.952 75.3406 303.378 75.6052 302.937L77.4279 299.914C72.0576 302.168 67.8535 306.451 65.6927 311.958C62.2236 320.798 64.8499 330.744 72.2242 336.708C72.626 337.031 72.6848 337.619 72.3614 338.016C72.1752 338.241 71.9107 338.364 71.6363 338.364L71.6461 338.354Z" fill="white"/>
<path d="M76.0126 345.89C75.8558 345.89 75.704 345.851 75.557 345.772C75.1503 345.547 74.9739 345.052 75.1454 344.621L83.5732 323.145C83.7594 322.664 84.2984 322.429 84.7785 322.62C85.2587 322.806 85.4939 323.35 85.3028 323.826L79.3544 338.986L92.1333 322.057C92.442 321.645 93.03 321.567 93.4367 321.875C93.8482 322.184 93.9266 322.767 93.618 323.179L76.7525 345.522C76.5712 345.762 76.2919 345.895 76.0077 345.895L76.0126 345.89Z" fill="white"/>
<path d="M79.9012 318.455C79.813 318.455 79.7248 318.446 79.6415 318.416C79.1467 318.274 78.8625 317.755 79.0095 317.26L86.2466 292.457C86.3201 292.207 86.4965 291.996 86.7317 291.883C86.9669 291.766 87.2413 291.756 87.4814 291.854L95.6005 295.039C95.8308 295.127 96.017 295.308 96.115 295.534C96.213 295.759 96.2179 296.014 96.1297 296.244L88.2752 316.265C88.089 316.745 87.55 316.981 87.0698 316.789C86.5896 316.603 86.3544 316.059 86.5455 315.584L94.0619 296.43L87.7558 293.956L80.8028 317.784C80.6852 318.191 80.3128 318.455 79.911 318.455H79.9012Z" fill="white"/>
<path d="M79.5706 299.096C79.5167 299.096 79.4579 299.096 79.404 299.081L73.4702 297.998C72.9655 297.905 72.6274 297.42 72.7205 296.916C72.8136 296.411 73.2987 296.073 73.8034 296.166L79.7371 297.249C80.2418 297.342 80.5799 297.827 80.4868 298.332C80.4035 298.782 80.0115 299.096 79.5706 299.096Z" fill="white"/>
<path d="M91.0583 346.414C90.9162 346.414 90.7741 346.38 90.6369 346.311L84.6786 343.268C84.223 343.033 84.0368 342.474 84.272 342.014C84.5071 341.553 85.0657 341.372 85.5263 341.607L91.4846 344.65C91.9403 344.885 92.1265 345.444 91.8913 345.904C91.7247 346.228 91.4013 346.414 91.0632 346.414H91.0583Z" fill="white"/>
<path d="M78.4657 323.38C78.3775 323.38 78.2893 323.37 78.206 323.341C77.7111 323.199 77.4269 322.679 77.5739 322.184L86.2467 292.457C86.3888 291.962 86.9082 291.682 87.4031 291.825C87.898 291.967 88.1822 292.486 88.0352 292.981L79.3575 322.709C79.2399 323.115 78.8675 323.38 78.4657 323.38Z" fill="white"/>
<path d="M76.0121 345.89C75.8161 345.89 75.6201 345.831 75.4535 345.704C75.0419 345.395 74.9635 344.812 75.2722 344.4L95.9742 316.981C96.2829 316.569 96.8709 316.491 97.2776 316.799C97.6892 317.108 97.7676 317.691 97.4589 318.103L76.7568 345.522C76.5756 345.767 76.2963 345.895 76.0121 345.895V345.89Z" fill="white"/>
<path d="M84.4392 324.414C84.3853 324.414 84.3314 324.414 84.2775 324.399L78.3046 323.36C77.7999 323.272 77.4569 322.792 77.5451 322.282C77.6333 321.777 78.1135 321.439 78.6231 321.523L84.596 322.561C85.1007 322.65 85.4437 323.13 85.3555 323.639C85.2771 324.09 84.8851 324.414 84.4392 324.414Z" fill="white"/>
<path d="M96.7136 318.475C96.6597 318.475 96.6058 318.475 96.5519 318.46L87.2421 316.838C86.7374 316.75 86.3944 316.27 86.4826 315.76C86.5708 315.256 87.0461 314.918 87.5606 315.001L96.8704 316.623C97.375 316.711 97.718 317.191 97.6298 317.701C97.5514 318.152 97.1594 318.47 96.7136 318.47V318.475Z" fill="white"/>
<g clip-path="url(#clip0_3553_123)">
<path d="M332.849 167.209V278.04L333.762 278.955H342.898L343.807 280.473L342.159 281.879L37.7419 282.044C35.4755 282.094 34.0417 281.241 35.0391 278.955H44.7816V243.235L45.6944 242.319H60.9182C61.025 242.319 62.441 243.739 62.441 243.846V261.249H91.673C91.8065 257.472 91.0674 253.432 92.8574 249.918L108.762 249.36C109.568 248.878 107.956 246.654 109.996 244.498C110.891 243.552 125.745 233.85 126.733 233.757C130.313 233.417 128.359 239.842 128.826 242.315H143.444V226.743L144.357 225.828H162.934V209.037L163.847 208.122H180.593V188.889L202.91 173.388L204.344 174.232V278.955H212.261V245.065L213.174 244.15H230.53V228.578C230.53 228.377 231.336 227.649 231.14 227.051H247.584V198.657C247.584 198.456 248.39 197.728 248.194 197.13H264.335L265.248 198.045V244.145H284.127V225.828H300.571L301.181 197.13H315.799V168.124L316.712 167.209H332.853H332.849ZM329.803 170.263H318.841V278.343H329.803V170.263ZM262.202 200.184H250.63V278.04L251.543 278.955H262.202V200.184ZM315.185 200.184H304.222V278.343H315.795V201.711C315.795 201.51 314.989 200.782 315.185 200.184ZM162.934 228.881H146.49V278.343H162.934V228.881ZM286.563 229.797V278.343L293.255 278.955L293.799 229.846C293.429 228.332 286.977 228.444 286.563 229.797ZM300.571 228.881H296.31V278.343H300.571V228.881ZM240.277 230.105H233.576V278.955C235.753 278.678 238.67 279.776 240.277 278.04V230.105ZM247.584 230.105L243.283 230.372C242.659 230.806 242.762 231.56 242.682 232.212C241.475 242.199 242.935 256.762 243.345 267.021C243.501 270.981 243.18 274.999 243.318 278.955H247.584V230.1V230.105ZM125.781 278.955V238.042L111.772 247.507V278.343H124.868C124.997 278.343 125.562 279.259 125.781 278.955ZM59.3998 245.369H47.8273V278.955H74.0136V264.606L73.1007 263.691H60.3126L59.3998 262.776V245.373V245.369ZM134.918 245.369H128.826V278.955C130.719 277.964 132.86 278.397 134.918 278.343V245.369ZM143.444 245.369H137.963V278.343H143.444V245.369ZM223.223 247.199H215.307V278.951C217.831 278.598 221.286 279.87 223.223 278.035V247.199ZM230.535 247.199H225.663V278.951H230.535V247.199ZM266.245 247.284L265.511 247.771L265.328 277.951C265.943 279.835 272.742 278.701 274.599 278.866L275.333 278.379L275.516 248.199C274.901 246.315 268.102 247.449 266.245 247.284ZM283.517 247.811L278.036 247.199V278.339H283.517V247.806V247.811ZM108.731 278.343V252.695C108.286 252.534 108.001 253.307 107.818 253.307H95.3331V278.343H108.731ZM92.2874 278.955V264.606L91.3746 263.691H76.4536V278.955H92.2874Z" fill="white"/>
<path d="M257.54 163.941C250.816 157.097 244.471 149.409 237.031 143.48L156.188 201.108L134.142 198.482L111.42 212.394L90.4437 206.55L47.1902 232.216C42.7731 232.859 45.516 229.604 47.8759 228.622L89.6823 203.938L110.77 209.795L133.617 195.621L155.791 198.206L237.543 139.833L275.284 177.58L330.996 145.489L332.844 146.15L331.86 148.203L275.76 180.553C274.785 180.897 274.238 180.54 273.436 180.066C271.33 178.816 264.206 170.812 261.886 168.436C260.434 166.945 258.992 165.418 257.54 163.941Z" fill="white"/>
<path d="M96.9724 222.961C102.409 228.845 93.3033 237.328 87.7553 231.288C82.2072 225.247 91.5668 217.113 96.9724 222.961ZM91.5134 224.086C86.6198 225.39 90.5249 233.792 94.746 229.189C97.0303 226.698 94.4521 223.305 91.5134 224.086Z" fill="white"/>
<path d="M184.711 148.391C193.215 147.342 194.213 161.807 184.6 160.463C177.364 159.454 178.205 149.19 184.711 148.391ZM187.752 152.092C185.236 149.547 180.45 153.07 182.983 156.565C185.739 160.374 190.74 155.105 187.752 152.092Z" fill="white"/>
<path d="M276.672 129.462C284.393 128.515 286.192 140.627 278.28 141.547C269.824 142.534 269.236 130.377 276.672 129.462ZM275.136 133.163C272.135 136.19 277.184 141.444 279.905 137.636C282.626 133.828 277.487 130.792 275.136 133.163Z" fill="white"/>
</g>
<defs>
<linearGradient id="paint0_linear_3553_123" x1="1.43782e-07" y1="201.756" x2="397.385" y2="152.413" gradientUnits="userSpaceOnUse">
<stop stop-color="#4765E6"/>
<stop offset="0.46" stop-color="#5C4099"/>
<stop offset="1" stop-color="#E31662"/>
</linearGradient>
<clipPath id="clip0_3553_123">
<rect width="309.088" height="152.636" fill="white" transform="translate(34.7188 129.408)"/>
</clipPath>
</defs>
</svg>
