<?xml version="1.0" encoding="UTF-8"?>
<svg id="Layer_2" data-name="Layer 2" xmlns="http://www.w3.org/2000/svg" viewBox="0 0 67.48 67.48">
  <defs>
    <style>
      .cls-1 {
        fill: #fff;
      }

      .cls-2 {
        fill: #5066af;
      }
    </style>
  </defs>
  <g id="Layer_1-2" data-name="Layer 1">
    <circle class="cls-2" cx="33.74" cy="33.74" r="33.74"/>
    <g>
      <path class="cls-1" d="M50.16,23.04s0-.03-.01-.05c-.01-.03-.02-.06-.04-.1,0-.02-.02-.03-.03-.04-.02-.03-.03-.06-.06-.09,0-.01-.02-.03-.03-.04-.03-.03-.06-.06-.1-.09h0s-.08-.05-.13-.07c-.02,0-.03,0-.05-.01-.03-.01-.06-.02-.1-.03h-3.65v-7.57c.83-.32,1.42-1.13,1.42-2.08,0-1.23-1-2.23-2.23-2.23s-2.23,1-2.23,2.23c0,1.05.73,1.92,1.7,2.16v7.48h-7.07l2.4-2.4c.13-.12.2-.3.2-.47v-4.67c.86-.31,1.49-1.13,1.49-2.1,0-1.23-1-2.23-2.23-2.23s-2.23,1-2.23,2.23c0,1.03.7,1.89,1.64,2.15v4.35l-3.15,3.15h-4.02v-.53l2.49-2.5c.12-.12.19-.29.19-.47v-4.02c.9-.28,1.55-1.13,1.55-2.12,0-1.23-1-2.23-2.23-2.23s-2.23,1-2.23,2.23c0,1,.67,1.85,1.57,2.13v3.74l-2.49,2.5c-.12.12-.2.3-.2.47v.81h-1.74v-7.52c.91-.28,1.56-1.13,1.56-2.12,0-1.23-1-2.23-2.23-2.23s-2.23,1-2.23,2.23c0,1,.66,1.84,1.56,2.12v7.52h-4.42v-7.52c.9-.28,1.56-1.13,1.56-2.12,0-1.23-1-2.23-2.23-2.23s-2.23,1-2.23,2.23c0,1,.66,1.84,1.56,2.12v7.52h-2.99c-.37,0-.67.3-.67.67v23.38c0,.37.3.67.67.67h8.74v10.36c0,.23.12.44.31.56.11.07.23.11.36.11.09,0,.19-.02.28-.06l21.62-10.01c.24-.11.39-.35.39-.61v-24.4s0-.1-.02-.15h.01ZM32.75,12.87c0-.49.4-.9.9-.9s.89.4.89.9-.4.89-.89.89-.9-.4-.9-.89ZM44.26,12.87c0-.49.41-.9.9-.9s.89.4.89.9-.4.89-.89.89-.9-.4-.9-.89ZM35.74,24.34l.48-.48h8.41v.5l-8.89,3.43v-3.45h0ZM31.64,23.86h2.8c-.02.06-.03.13-.03.2v4.24l-2.76,1.07v-5.51h0ZM28.56,23.86h1.74v5.07l-1.74-1.74v-3.32h0ZM21.24,12.87c0-.49.4-.9.9-.9s.9.4.9.9-.4.89-.9.89-.9-.4-.9-.89ZM23.93,45.9h-4.78v-22.04h2.32v8.5c0,.18.07.35.19.47l2.26,2.26v10.81h0ZM27.65,30.9c-.26.1-.43.35-.43.62v14.37h-1.96v-11.08c0-.18-.07-.35-.2-.47l-2.26-2.27v-8.22h4.42v3.6c0,.18.07.35.2.47l2.2,2.21-1.97.76h0ZM48.84,47.16l-20.28,9.39v-24.57l20.28-7.82v23Z"/>
      <path class="cls-1" d="M41.32,41.38c1.41-1.7,1.75-2.23,2.17-3.41,1.16-3.3.56-7.53-3.37-6.38-2.21.65-4.48,1.75-6.81,2.68v16.01c1.11-.5,2.17-.97,3.3-1.48v-5.04c.82-.58,1.4-.71,1.86-.01.67,1.03,1.47,1.89,2.22,2.81.11.12.26.31.39.25,1.15-.48,2.29-1.01,3.53-1.56-1.14-1.33-2.22-2.6-3.3-3.87h0ZM39.26,39.1c-.85.42-1.71.73-2.61,1.12v-3.87c.97-.39,1.88-.87,2.78-1.12.96-.27,1.41.29,1.38,1.38-.03.98-.67,2.05-1.54,2.49h-.01Z"/>
    </g>
  </g>
</svg>