<?xml version="1.0" encoding="UTF-8"?>
<svg id="Layer_2" data-name="Layer 2" xmlns="http://www.w3.org/2000/svg" viewBox="0 0 86.05 126.62">
  <defs>
    <style>
      .cls-1 {
        fill: #fff;
      }
    </style>
  </defs>
  <g id="Layer_1-2" data-name="Layer 1">
    <g>
      <path class="cls-1" d="M86.01,32.97s-.02-.08-.03-.11c-.03-.09-.07-.18-.1-.26-.02-.05-.05-.07-.07-.11-.05-.08-.09-.16-.16-.23-.02-.03-.05-.07-.07-.09-.08-.08-.17-.17-.27-.24,0,0,0,0-.02,0h0c-.1-.08-.22-.14-.35-.19-.04-.02-.07-.03-.11-.04-.08-.03-.18-.05-.27-.07-.05,0-.09,0-.15,0-.04,0-.07-.02-.12-.02h-9.42V11.46c2.22-.86,3.79-3.01,3.79-5.53,0-3.27-2.66-5.94-5.93-5.94s-5.94,2.66-5.94,5.94c0,2.79,1.94,5.11,4.53,5.75v19.9h-18.81l6.39-6.39c.34-.33.52-.79.52-1.25v-12.43c2.29-.82,3.95-3.01,3.95-5.58,0-3.27-2.66-5.94-5.94-5.94s-5.93,2.66-5.93,5.94c0,2.73,1.85,5.02,4.37,5.71v11.56l-8.38,8.38h-10.71v-1.41l6.63-6.64c.33-.33.51-.79.51-1.25v-10.7c2.39-.76,4.13-3,4.13-5.65,0-3.27-2.66-5.94-5.93-5.94s-5.94,2.66-5.94,5.94c0,2.66,1.77,4.92,4.18,5.67v9.94l-6.63,6.64c-.33.33-.51.79-.51,1.25v2.15h-4.63V11.59c2.41-.76,4.16-3,4.16-5.66,0-3.27-2.66-5.94-5.94-5.94s-5.93,2.66-5.93,5.94c0,2.66,1.75,4.9,4.15,5.66v19.99h-11.74V11.59c2.4-.76,4.15-3,4.15-5.66,0-3.27-2.66-5.94-5.93-5.94s-5.94,2.66-5.94,5.94c0,2.66,1.75,4.9,4.16,5.66v19.99H1.78c-.98,0-1.78.79-1.78,1.78v62.16c0,.98.79,1.78,1.78,1.78h23.25v27.54c0,.61.31,1.17.82,1.5.29.19.63.28.95.28.25,0,.51-.06.75-.17l57.47-26.61c.63-.29,1.03-.93,1.03-1.62V33.36c0-.13-.02-.27-.05-.39ZM39.73,5.94c0-1.31,1.07-2.38,2.38-2.38s2.37,1.07,2.37,2.38-1.07,2.37-2.37,2.37-2.38-1.07-2.38-2.37ZM61.88,96.17c-.36.16-.76-.33-1.04-.66-2-2.43-4.13-4.73-5.91-7.46-1.22-1.86-2.77-1.51-4.96.03v13.41c-2.98,1.34-5.81,2.6-8.77,3.93-.02-14.19-.02-28.4-.02-42.57,6.19-2.48,12.23-5.4,18.1-7.13,10.45-3.07,12.05,8.18,8.96,16.97-1.1,3.11-2.02,4.52-5.76,9.06,2.89,3.38,5.75,6.73,8.78,10.28-3.28,1.48-6.32,2.88-9.39,4.16ZM70.33,5.94c0-1.31,1.08-2.38,2.38-2.38s2.37,1.07,2.37,2.38-1.07,2.37-2.37,2.37-2.38-1.07-2.38-2.37ZM47.66,36.42l1.27-1.28h22.36v1.33l-23.64,9.12v-9.16ZM36.76,35.14h7.44c-.06.18-.09.36-.09.54v11.28l-7.35,2.83v-14.65ZM28.58,35.14h4.63v13.47l-4.63-4.63v-8.84ZM9.13,5.94c0-1.31,1.07-2.38,2.38-2.38s2.37,1.07,2.37,2.38-1.07,2.37-2.37,2.37-2.38-1.07-2.38-2.37ZM16.27,93.75H3.55v-58.61h6.18v22.61c0,.47.19.92.51,1.25l6.02,6.02v28.73ZM26.17,53.87c-.68.26-1.14.92-1.14,1.65v38.22h-5.21v-29.47c0-.47-.19-.93-.52-1.25l-6.01-6.02v-21.87h11.74v9.58c0,.47.19.93.52,1.25l5.86,5.87-5.25,2.03Z"/>
      <path class="cls-1" d="M57.46,65.38c-2.37.67-4.81,1.92-7.39,2.97v10.28c2.41-1.02,4.69-1.85,6.95-2.97,2.34-1.16,4.01-4.02,4.1-6.62.09-2.89-1.11-4.39-3.67-3.67Z"/>
    </g>
  </g>
</svg>