<?xml version="1.0" encoding="UTF-8"?>
<svg id="Layer_2" data-name="Layer 2" xmlns="http://www.w3.org/2000/svg" viewBox="0 0 101.15 117.23">
  <defs>
    <style>
      .cls-1 {
        fill: #fff;
      }
    </style>
  </defs>
  <g id="Layer_1-2" data-name="Layer 1">
    <g>
      <path class="cls-1" d="M75.94,25.9c0-.06,0-.12-.01-.17-.01-.02-.01-.03-.01-.05-.01-.01-.01-.03-.01-.05-.02-.06-.04-.12-.07-.18-.01-.04-.02-.07-.04-.11-.02-.05-.05-.09-.07-.14,0,0,0,0,0,0-.03-.05-.05-.09-.08-.14-.01-.02-.03-.04-.04-.06,0,0,0,0,0-.01-.02-.03-.05-.05-.07-.08-.03-.03-.05-.06-.09-.09-.03-.03-.06-.05-.09-.08,0,0,0,0,0,0,0-.02-.02-.02-.04-.03-.04-.03-.08-.06-.13-.09-.01,0-.02-.02-.03-.03L38.83,3.02c-.1-.06-.21-.11-.32-.15-.08-.03-.17-.05-.25-.07-.37-.06-.76,0-1.11.2,0,0,0,0,0,0L.84,24.58s-.01,0-.02,0c0,0,0,0,0,0h-.02s-.03.03-.04.04c-.04.03-.09.05-.13.09-.04.03-.08.07-.11.1-.19.18-.32.4-.4.64-.01.04-.03.07-.04.11,0,0,0,0,0,.01,0,0,0,0,0,0-.02.05-.03.1-.04.15-.01.09-.02.17-.02.26v68.01c0,.57.31,1.1.8,1.39l36.27,21.55c.14.1.3.17.47.21.05.02.09.03.14.04.1.02.2.03.3.03s.2,0,.3-.03c.01,0,.03,0,.05-.01.07-.01.15-.04.22-.07.12-.04.23-.1.33-.17l36.27-21.55s.01,0,.02-.01c.2-.12.38-.29.51-.49,0,0,0,0,0,0,.02-.03.03-.06.05-.09.09-.15.15-.32.19-.49,0,0,0,0,0-.01.02-.1.03-.19.03-.29,0,0,0-.02,0-.02V26.03s0-.01,0-.02v-.02s0-.05,0-.08c0,0,0,0,0,0ZM37.98,6.28l33.18,19.72-33.18,19.71L4.79,26,37.98,6.28ZM39.6,48.51l33.11-19.67v64.25l-33.11,19.67V48.51Z"/>
      <path class="cls-1" d="M46.19,30.77s-.04.03-.06.05c-.08.08-.15.18-.21.28,0,0,0,.01,0,.02-.05.09-.08.18-.12.28-.01.04-.04.08-.05.12-.03.12-.04.24-.05.36,0,.02,0,.03,0,.05,0,0,0,0,0,0s0,0,0,0c0,.02,0,.04,0,.05,0,.12.02.24.05.36.01.04.03.08.05.12.03.1.07.19.12.28,0,0,0,.01,0,.02.06.1.14.2.21.28.02.02.04.04.06.05.08.07.16.14.25.19.02.01.03.02.04.03l2.05,1.22c.26.15.54.23.83.23.1,0,.19,0,.28-.03.09-.02.19-.04.28-.07.1-.04.2-.09.3-.14l2.02-1.2c.1-.06.2-.14.28-.22.02-.02.03-.03.05-.05.08-.08.15-.17.2-.26,0-.01.02-.02.03-.04.01-.02.02-.04.03-.06.03-.05.05-.11.08-.17.02-.05.04-.09.05-.14.02-.05.03-.1.04-.16,0-.05.02-.1.02-.15,0-.05,0-.1,0-.16,0-.05,0-.1,0-.15,0-.05-.01-.11-.02-.16,0-.05-.02-.1-.04-.15-.01-.05-.03-.1-.05-.15-.02-.05-.04-.1-.07-.15-.01-.02-.02-.05-.03-.07-.01-.02-.03-.04-.05-.06-.03-.05-.06-.09-.1-.13-.04-.04-.07-.08-.11-.12-.03-.03-.07-.06-.11-.1-.05-.04-.1-.08-.15-.11-.02-.01-.03-.03-.05-.04l-2.02-1.2c-.1-.06-.2-.11-.31-.15-.09-.03-.18-.05-.27-.07h0s0,0,0,0c-.37-.06-.76,0-1.1.2,0,0,0,0,0,0l-2.05,1.21s-.03.02-.05.04c-.09.06-.17.12-.25.19Z"/>
      <path class="cls-1" d="M37.06,31.44c5.27,0,9.39-3.03,9.39-6.89s-4.12-6.89-9.39-6.89-9.39,3.03-9.39,6.89,4.12,6.89,9.39,6.89ZM37.06,20.9c3.28,0,6.15,1.7,6.15,3.65s-2.87,3.65-6.15,3.65-6.15-1.71-6.15-3.65,2.87-3.65,6.15-3.65Z"/>
      <path class="cls-1" d="M74.33,16.25c-1.05,0-1.9.85-1.9,1.9s.85,1.9,1.9,1.9c3.74,0,6.78,3.04,6.78,6.78,0,1.05.85,1.9,1.9,1.9s1.9-.85,1.9-1.9c0-5.84-4.75-10.58-10.58-10.58Z"/>
      <path class="cls-1" d="M74.33,8.13c-1.05,0-1.9.85-1.9,1.9s.85,1.9,1.9,1.9c8.22,0,14.9,6.68,14.9,14.9,0,1.05.85,1.9,1.9,1.9s1.9-.85,1.9-1.9c0-10.31-8.39-18.7-18.7-18.7Z"/>
      <path class="cls-1" d="M74.33,0c-1.05,0-1.9.85-1.9,1.9s.85,1.9,1.9,1.9c12.69,0,23.02,10.33,23.02,23.03,0,1.05.85,1.9,1.9,1.9s1.9-.85,1.9-1.9c0-14.8-12.03-26.83-26.82-26.83Z"/>
      <path class="cls-1" d="M68.71,52.69c-1.27-2.69-3.07-4.31-5.4-4.88-2.34-.57-5.08.03-8.24,1.82l-11.35,6.42v46.11l11.35-6.83c3.13-1.88,5.87-4.48,8.22-7.8,2.34-3.3,4.15-7.04,5.42-11.23,1.27-4.18,1.9-8.48,1.9-12.89s-.63-8.02-1.9-10.7ZM61.03,78.71c-1.53,3.2-3.67,5.61-6.43,7.25l-3.48,2.07v-26.64l3.48-1.99c2.76-1.58,4.9-1.64,6.43-.19,1.52,1.45,2.28,4.27,2.28,8.45s-.76,7.86-2.28,11.05Z"/>
    </g>
  </g>
</svg>