<?xml version="1.0" encoding="UTF-8"?>
<svg id="Layer_2" data-name="Layer 2" xmlns="http://www.w3.org/2000/svg" viewBox="0 0 67.48 67.48">
  <defs>
    <style>
      .cls-1 {
        fill: #5c4199;
      }

      .cls-2 {
        fill: #fff;
      }
    </style>
  </defs>
  <g id="Layer_1-2" data-name="Layer 1">
    <circle class="cls-1" cx="33.74" cy="33.74" r="33.74"/>
    <g>
      <path class="cls-2" d="M44.36,22.89v-.11s-.02-.05-.02-.07c0,0,0-.03-.01-.04,0-.02-.02-.04-.03-.05h0s-.02-.04-.03-.05c0,0-.01,0-.02-.02h0s-.02-.02-.03-.03-.02-.02-.03-.04c-.01,0-.02-.02-.03-.03h-.01s-.03-.03-.05-.04h-.01l-13.86-8.24s-.08-.04-.12-.06c-.03,0-.06-.02-.1-.03-.14-.02-.29,0-.42.08h0l-13.86,8.23h0s-.01,0-.02.02c-.02,0-.03.02-.05.03-.02,0-.03.03-.04.04-.07.07-.12.15-.15.24,0,0-.01.03-.02.04h0s-.01.04-.01.06v26.06c0,.22.12.42.31.53l13.84,8.22c.05.04.11.06.18.08.02,0,.03,0,.05.02.04,0,.08,0,.11,0s.08,0,.11,0h.02s.06-.02.08-.03c.05-.02.09-.04.13-.06l13.84-8.22h0c.08-.05.14-.11.2-.19h0s.01-.02.02-.04c.03-.06.06-.12.07-.19h0s.01-.07.01-.11h0v-25.94h0v-.04h0l-.05-.02ZM29.87,15.4l12.66,7.53-12.66,7.52-12.67-7.52,12.66-7.53h0ZM30.49,31.52l12.64-7.51v24.52l-12.64,7.51v-24.52Z"/>
      <path class="cls-2" d="M33,24.75s-.02,0-.02.02c-.03.03-.06.07-.08.11h0s-.03.07-.04.11c0,.02-.01.03-.02.05-.01.04-.02.09-.02.14v.02h0v.02c0,.05,0,.09.02.14,0,.02.01.03.02.04.01.04.03.07.05.11h0s.05.08.08.11c0,0,.02,0,.02.02.03.03.06.05.09.07,0,0,.01,0,.02,0l.78.46c.1.06.21.09.32.09h.11s.07-.02.11-.03.08-.03.11-.06l.77-.46s.08-.05.11-.08c0,0,.01,0,.02-.02.03-.03.06-.06.08-.1v-.02s.01-.02.02-.02l.03-.06s.01-.03.02-.05c0-.02.01-.04.01-.06v-.24s0-.04-.01-.06c0-.02-.01-.04-.02-.06,0-.02-.02-.04-.03-.06,0,0,0-.02-.01-.03,0,0-.01-.02-.02-.02-.01-.02-.02-.03-.04-.05-.01-.02-.03-.03-.04-.05-.01,0-.03-.02-.04-.04-.02-.02-.04-.03-.06-.04,0,0-.01,0-.02,0l-.77-.46s-.08-.04-.12-.06c-.03,0-.07-.02-.1-.03h0c-.14-.02-.29,0-.42.08h0l-.78.46s-.01,0-.02,0c-.03.02-.06.05-.09.07l-.02.03Z"/>
      <path class="cls-2" d="M29.52,25c2.01,0,3.58-1.16,3.58-2.63s-1.57-2.63-3.58-2.63-3.58,1.15-3.58,2.63,1.57,2.63,3.58,2.63ZM29.52,20.98c1.25,0,2.35.65,2.35,1.39s-1.1,1.39-2.35,1.39-2.35-.65-2.35-1.39,1.1-1.39,2.35-1.39Z"/>
      <path class="cls-2" d="M43.74,19.21c-.4,0-.73.32-.73.73s.32.73.73.73c1.43,0,2.59,1.16,2.59,2.59,0,.4.32.73.73.73s.73-.32.73-.73c0-2.23-1.81-4.04-4.04-4.04h-.01Z"/>
      <path class="cls-2" d="M43.74,16.11c-.4,0-.73.32-.73.73s.32.73.73.73c3.14,0,5.69,2.55,5.69,5.69,0,.4.32.73.73.73s.73-.32.73-.73c0-3.94-3.2-7.14-7.14-7.14h-.01Z"/>
      <path class="cls-2" d="M43.74,13.01c-.4,0-.73.32-.73.73s.32.73.73.73c4.85,0,8.79,3.94,8.79,8.79,0,.4.32.73.73.73s.73-.32.73-.73c0-5.65-4.59-10.24-10.24-10.24h0Z"/>
      <path class="cls-2" d="M41.6,33.11c-.49-1.02-1.17-1.65-2.06-1.86-.89-.22-1.94,0-3.15.69l-4.33,2.45v17.6l4.33-2.61c1.19-.72,2.24-1.71,3.14-2.98.89-1.26,1.58-2.69,2.07-4.29.48-1.6.73-3.24.73-4.92s-.24-3.06-.73-4.09h0ZM38.67,43.04c-.58,1.22-1.4,2.14-2.45,2.77l-1.33.79v-10.17l1.33-.76c1.05-.6,1.87-.63,2.45-.07.58.55.87,1.63.87,3.22s-.29,3-.87,4.22Z"/>
    </g>
  </g>
</svg>