<svg width="56" height="56" viewBox="0 0 56 56" fill="none" xmlns="http://www.w3.org/2000/svg">
<path d="M27.0444 33.8397C27.0526 33.6818 27.0643 33.5473 27.0643 33.4117C27.0643 29.7757 27.0643 26.1409 27.0643 22.4183C26.8329 22.4183 26.6283 22.4183 26.4238 22.4183C24.5384 22.4183 22.6529 22.4195 20.7664 22.4183C19.9096 22.4183 19.5987 22.1142 19.5987 21.2734C19.5975 14.5627 19.5975 7.8521 19.5987 1.14264C19.5987 0.327489 19.9107 0.0140611 20.7231 0.0140611C23.6979 0.011722 26.6716 2.69667e-05 29.6464 0.0316037C29.9924 0.0351122 30.4202 0.202352 30.6668 0.442101C32.4517 2.17648 34.212 3.93659 35.9443 5.7236C36.1945 5.98206 36.3721 6.43232 36.3745 6.7937C36.4025 11.6167 36.3943 16.441 36.392 21.2652C36.392 22.1107 36.0822 22.4183 35.2325 22.4195C33.1554 22.4218 31.0782 22.4195 28.9637 22.4195V33.8526C30.8223 34.3976 32.6972 34.9484 34.5732 35.4958C39.7993 37.0196 45.0265 38.5411 50.2538 40.065C51.1924 40.3387 51.3256 40.5211 51.3256 41.5047C51.3256 43.7805 51.3256 46.0564 51.3256 48.3323C51.3256 49.0878 51.1608 49.324 50.4209 49.5404C43.0944 51.6817 35.7655 53.8196 28.4342 55.9434C28.156 56.0241 27.8124 56.0159 27.5319 55.9352C20.2509 53.8278 12.9746 51.7051 5.6983 49.5825C4.79709 49.3193 4.66735 49.1334 4.66735 48.1744C4.66735 45.8985 4.66735 43.6227 4.66735 41.3468C4.66735 40.5749 4.82748 40.3527 5.56037 40.1375C12.555 38.0897 19.5507 36.0431 26.5453 33.9964C26.7101 33.9485 26.8738 33.8935 27.0456 33.8397H27.0444ZM9.22599 41.0228C9.22599 41.0614 9.22599 41.1 9.22599 41.1386C9.39781 41.2006 9.56613 41.2708 9.74147 41.3222C15.6174 43.0379 21.4922 44.7582 27.3752 46.4517C27.7586 46.5616 28.2285 46.5675 28.6107 46.4575C34.5148 44.7594 40.4118 43.0344 46.3088 41.3129C46.4748 41.2649 46.6349 41.1971 46.7974 41.1398C46.788 41.1 46.7787 41.0603 46.7705 41.0193C40.8419 39.2885 34.9133 37.5576 28.9719 35.8232V40.7305C29.7329 39.9375 30.3886 39.2557 31.0081 38.6125C31.4874 39.0546 31.9257 39.4592 32.3734 39.872C31.1063 41.1527 29.8766 42.4192 28.6154 43.6554C28.2098 44.053 27.713 43.9911 27.2677 43.5583C26.626 42.935 26.003 42.2941 25.3671 41.6649C24.778 41.0813 24.183 40.5047 23.657 39.9913C24.1222 39.4791 24.5208 39.0394 25.0223 38.4862C25.6885 39.2101 26.3244 39.9025 27.0292 40.6685V35.8279C21.0633 37.5681 15.1452 39.2955 9.22716 41.0217L9.22599 41.0228ZM34.4844 20.5132V7.47786C32.9601 7.47786 31.4839 7.48137 30.0064 7.47669C29.2677 7.47435 28.9369 7.14689 28.9333 6.41361C28.9275 5.09089 28.931 3.76818 28.931 2.44664C28.931 2.26302 28.931 2.07941 28.931 1.90866H21.4852V20.5132H34.4844ZM27.0456 53.8383V48.3346C20.2182 46.3429 13.4012 44.3536 6.54925 42.3537V47.8574C13.3627 49.8456 20.1632 51.8291 27.0456 53.8383ZM28.9474 53.8453C35.8005 51.8443 42.6198 49.855 49.4437 47.8621V42.3596C42.5812 44.363 35.7538 46.3558 28.9474 48.3428V53.8453ZM30.8281 3.38341V5.57039H32.9859C32.2775 4.85231 31.554 4.1202 30.8281 3.38341Z" fill="white"/>
<path d="M23.0013 30.5722C21.7739 31.813 20.5431 33.0808 19.2819 34.317C18.8985 34.6935 18.4052 34.676 18.0207 34.2994C16.7723 33.0761 15.5473 31.8294 14.2861 30.5652C14.7443 30.1512 15.185 29.7535 15.6385 29.343C16.2206 29.957 16.8705 30.6435 17.5882 31.4002C18.1843 28.7033 16.7758 27.0602 14.6975 27.0836C13.6093 27.0952 12.5094 27.1619 11.4352 27.0309C9.61289 26.8099 7.62228 25.3445 7.42591 22.4184C7.22253 22.4184 7.01446 22.4184 6.8064 22.4184C4.90112 22.4184 2.99585 22.4219 1.09057 22.4172C0.322612 22.4149 0 22.0898 0 21.312C0 14.5815 0 7.84984 0.00116888 1.11932C0.00233777 0.34043 0.321443 0.0141371 1.09057 0.0141371C4.08525 0.0106286 7.07875 0.000103055 10.0734 0.0293407C10.4031 0.0328493 10.8122 0.188394 11.0459 0.416448C12.8565 2.18006 14.6426 3.97058 16.4088 5.77981C16.625 6.00201 16.7781 6.39029 16.7793 6.70255C16.8027 11.5852 16.7968 16.4679 16.7933 21.3506C16.7933 22.0851 16.459 22.4149 15.7226 22.416C13.8174 22.4207 11.9121 22.4184 10.0068 22.4184C9.79524 22.4184 9.58484 22.4184 9.37444 22.4184C9.36859 23.9914 10.562 25.1819 12.1587 25.2194C13.1114 25.2416 14.064 25.2182 15.0166 25.2264C17.5169 25.2486 19.5683 27.3023 19.594 29.8027C19.5987 30.267 19.594 30.7312 19.594 31.3289C20.3163 30.543 20.9616 29.8413 21.6161 29.1302C22.1667 29.7033 22.5793 30.1336 23.0013 30.5734V30.5722ZM14.9114 7.47793C13.3744 7.47793 11.8981 7.48144 10.4229 7.47676C9.65497 7.47442 9.3382 7.1493 9.33353 6.37158C9.32885 5.55526 9.33353 4.73778 9.33353 3.92146C9.33353 3.24899 9.33353 2.57653 9.33353 1.92394H1.89476V20.5191H14.9126V7.47793H14.9114ZM13.268 5.58918C12.6017 4.92256 11.87 4.18928 11.2271 3.54605V5.58918H13.268Z" fill="white"/>
<path d="M48.5682 22.4183C48.2784 25.0018 46.8921 26.6578 44.6116 27.0156C43.6426 27.1677 42.6338 27.0823 41.6438 27.0846C39.3083 27.0917 38.2599 28.1325 38.2599 30.4634C38.2599 30.7101 38.2599 30.9569 38.2599 31.2879C38.9741 30.5441 39.624 29.8669 40.3113 29.1523C40.7963 29.7055 41.1867 30.1511 41.6227 30.647C41.5561 30.7171 41.403 30.882 41.2452 31.0411C40.2154 32.0738 39.1868 33.1088 38.1512 34.1356C37.5515 34.7297 37.1038 34.7262 36.5007 34.1262C35.3166 32.9497 34.1372 31.7674 32.9309 30.5616C33.4067 30.1265 33.8462 29.7231 34.3207 29.288C34.9332 29.9207 35.5925 30.6002 36.2506 31.2785C36.2996 31.2586 36.3499 31.2399 36.399 31.22C36.399 30.7663 36.3967 30.3125 36.399 29.8575C36.4177 27.2835 38.4621 25.238 41.0348 25.2216C41.9676 25.2158 42.9015 25.2368 43.8343 25.2158C45.4298 25.1783 46.6209 23.989 46.6185 22.4148C45.0663 22.4148 43.514 22.4148 41.9617 22.4148C41.3983 22.4148 40.8337 22.4195 40.2703 22.4136C39.5316 22.4054 39.202 22.0827 39.1996 21.347C39.195 19.1297 39.1973 16.9111 39.1973 14.6937C39.1973 10.2192 39.1973 5.74465 39.1973 1.27128C39.1973 0.272522 39.465 0.00938303 40.4819 0.00821352C43.3784 0.00821352 46.2761 0.0164001 49.1726 2.69695e-05C49.6588 -0.00231205 50.0177 0.147385 50.3566 0.49122C52.0644 2.22092 53.7826 3.94127 55.5126 5.64875C55.8562 5.9879 56.0012 6.34928 56 6.83463C55.9871 11.6203 55.993 16.4059 55.9918 21.1915C55.9918 22.1236 55.7043 22.4136 54.7832 22.4148C52.7248 22.416 50.6652 22.4148 48.5671 22.4148L48.5682 22.4183ZM41.0991 1.90515V20.512H54.083V7.47786C52.6161 7.47786 51.1971 7.47786 49.7792 7.47786C48.8102 7.47786 48.5332 7.20185 48.5332 6.23584C48.5332 4.80202 48.5332 3.36821 48.5332 1.90515H41.0991ZM52.4852 5.60314C51.8131 4.93301 51.0755 4.19856 50.4396 3.56469V5.60314H52.4852Z" fill="white"/>
<path d="M32.6352 9.39117V11.1805H23.3613V9.39117H32.6352Z" fill="white"/>
<path d="M32.6118 14.9381H23.38V13.1242H32.6118V14.9381Z" fill="white"/>
<path d="M27.0327 7.45564H23.3718V5.64758H27.0327V7.45564Z" fill="white"/>
<path d="M23.3648 16.8479H25.1508V18.6455H23.3648V16.8479Z" fill="white"/>
<path d="M28.9018 16.8515V18.642H27.1017V16.8515H28.9018Z" fill="white"/>
<path d="M30.8316 16.8479H32.6177V18.6455H30.8316V16.8479Z" fill="white"/>
<path d="M13.0202 11.1875H3.76497V9.39351H13.0202V11.1875Z" fill="white"/>
<path d="M13.026 14.9206H3.779V13.1231H13.026V14.9206Z" fill="white"/>
<path d="M3.76146 18.6443V16.8491H13.0143V18.6443H3.76146Z" fill="white"/>
<path d="M7.44929 5.65109V7.42991H3.77666V5.65109H7.44929Z" fill="white"/>
<path d="M52.2303 9.38766V11.1852H42.9775V9.38766H52.2303Z" fill="white"/>
<path d="M42.9588 14.9089V13.1149H52.2116V14.9089H42.9588Z" fill="white"/>
<path d="M52.2327 16.8608V18.6537H42.9798V16.8608H52.2327Z" fill="white"/>
<path d="M46.6256 7.44979H42.9763V5.65343H46.6256V7.44979Z" fill="white"/>
</svg>
