<svg width="65" height="65" viewBox="0 0 65 65" fill="none" xmlns="http://www.w3.org/2000/svg">
<path d="M52.9343 41.0682C60.1877 41.2327 64.8434 46.9603 64.9956 52.6682C65.1412 58.1007 61.6666 62.9495 56.3054 64.4942C53.1432 65.4047 50.0653 65.0854 47.1653 63.5408C44.2708 61.9995 42.3574 59.6157 41.3296 56.5067C40.1618 57.55 39.094 58.6196 37.9074 59.54C35.6551 61.2886 33.3317 62.9484 31.0439 64.6532C30.4706 65.08 29.9406 65.0218 29.3628 64.6444C20.0715 58.5746 12.7647 50.7176 7.52018 41.0056C4.20346 34.8634 2.00342 28.3437 0.850068 21.4818C0.267836 18.0152 -0.00439099 14.52 5.35312e-05 11.0041C5.35312e-05 10.2131 0.373393 9.83792 1.16563 9.7732C7.06684 9.2916 12.7692 7.9631 18.2926 5.86338C22.2238 4.36813 25.9549 2.48453 29.4917 0.229034C30.0372 -0.118725 30.505 -0.0463208 31.0284 0.283885C36.7485 3.88873 42.8963 6.5194 49.4798 8.15508C52.7321 8.96359 56.0266 9.52088 59.3722 9.77649C60.1233 9.83353 60.4822 10.2471 60.4788 11.0655C60.4488 17.5555 59.5055 23.9095 57.5455 30.1088C56.3799 33.7949 54.8999 37.3525 53.0665 40.7643C53.0243 40.8433 52.9943 40.9288 52.9343 41.066V41.0682ZM30.1861 62.7477C33.0995 61.0166 38.3674 56.7403 40.6063 54.2654C40.7541 54.102 40.8274 53.8091 40.8196 53.5809C40.6363 47.8281 44.3452 42.9386 50.0109 41.4587C50.2287 41.4017 50.4709 41.2196 50.5842 41.0276C51.0109 40.3024 51.4031 39.5565 51.7831 38.805C56.0021 30.4544 58.2188 21.6167 58.3955 12.2832C58.3988 12.1077 58.3955 11.9311 58.3955 11.7544C57.4832 11.6381 56.6388 11.5383 55.7966 11.4209C54.9365 11.3014 54.0732 11.1884 53.2198 11.0326C45.1886 9.56366 37.6796 6.74649 30.7361 2.48892C30.3561 2.25525 30.0917 2.24538 29.7072 2.48233C22.4771 6.93518 14.647 9.82037 6.24238 11.1884C4.86236 11.4133 3.47122 11.5778 2.04231 11.7764C2.21231 21.8153 4.59902 31.2706 9.37243 40.1181C14.3792 49.3968 21.3604 56.9104 30.1861 62.7466V62.7477ZM50.8398 58.3157C50.8631 58.2674 50.8854 58.2191 50.9087 58.1698C51.6487 58.2093 52.1643 57.7946 52.642 57.324C54.6276 55.3636 56.6221 53.412 58.5766 51.4208C58.901 51.0895 59.1633 50.6003 59.2388 50.1494C59.3888 49.263 58.8588 48.4347 58.0877 48.0968C57.2277 47.7195 56.3732 47.8928 55.6577 48.5982C54.2854 49.9519 52.9198 51.3122 51.5431 52.6627C50.8409 53.3516 50.9142 53.3758 50.2331 52.6616C50.1076 52.5299 49.952 52.4268 49.8031 52.3182C48.9364 51.6863 47.7609 51.8092 47.0553 52.6034C46.3775 53.3659 46.3864 54.5693 47.1042 55.3021C47.8742 56.0887 48.6375 56.8884 49.4687 57.6092C49.8453 57.9361 50.3776 58.0864 50.8398 58.3168V58.3157Z" fill="white"/>
<path d="M24.0471 36.2961C23.7827 36.2961 23.6004 36.2961 23.4171 36.2961C20.3993 36.2961 17.3815 36.2961 14.3636 36.2972C11.6102 36.2983 9.59355 34.3149 9.59355 31.5964C9.59355 26.4963 9.59355 21.3962 9.59355 16.2961C9.59355 13.457 11.5625 11.5131 14.4414 11.5131C24.9582 11.5131 35.4751 11.5164 45.9919 11.5098C48.0153 11.5087 49.5464 12.3282 50.4165 14.1427C50.6998 14.7329 50.8509 15.4405 50.8554 16.0965C50.8887 21.2876 50.8865 26.4799 50.8653 31.671C50.8542 34.3785 48.8375 36.3005 46.0886 36.2983C43.1452 36.2961 40.2007 36.3005 37.2573 36.3016C37.094 36.3016 36.9307 36.3016 36.7329 36.3016V38.5834C38.0462 39.0091 38.914 39.8549 39.2029 41.2152C39.2596 41.4807 39.2652 41.7593 39.2663 42.0314C39.2707 44.5172 39.2718 47.0031 39.2674 49.4901C39.2629 51.5832 37.8262 52.994 35.7051 52.994C32.0573 52.994 28.4105 52.9962 24.7627 52.9918C22.6449 52.9896 21.2015 51.5777 21.1915 49.489C21.1793 46.9669 21.1771 44.4437 21.1893 41.9206C21.1971 40.3386 22.1238 39.1001 23.6427 38.6415C23.9449 38.5505 24.0671 38.4375 24.0538 38.1216C24.0305 37.5401 24.0471 36.9576 24.0471 36.2961ZM33.8206 34.2578C33.8273 34.1558 33.8362 34.1339 33.8284 34.1218C33.7895 34.0603 33.7517 33.9978 33.7051 33.9419C32.8539 32.9282 31.765 32.4016 30.4272 32.349C29.7517 32.3227 29.3283 31.8608 29.3661 31.2618C29.4017 30.6859 29.915 30.2822 30.5739 30.325C33.0939 30.4895 34.944 31.6754 36.0751 33.9079C36.234 34.2216 36.4296 34.2644 36.7262 34.2644C39.8552 34.2589 42.9841 34.2666 46.1131 34.2589C47.7609 34.2545 48.8209 33.2014 48.822 31.58C48.8253 26.4612 48.8242 21.3425 48.8175 16.2248C48.8175 15.9539 48.7964 15.673 48.7231 15.4141C48.3675 14.1591 47.3853 13.5217 45.833 13.5217C35.4273 13.5217 25.0216 13.5217 14.617 13.5217C12.6658 13.5217 11.6314 14.5321 11.6291 16.4596C11.6247 21.4313 11.6247 26.4042 11.6325 31.3759C11.6325 31.7379 11.6636 32.1131 11.7636 32.4587C12.1025 33.6281 13.0669 34.26 14.4814 34.26C20.6837 34.2622 26.8861 34.26 33.0895 34.2589C33.3284 34.2589 33.5673 34.2589 33.8206 34.2589V34.2578ZM30.3017 40.5295C30.3017 40.5295 30.3017 40.5229 30.3017 40.5186C28.5072 40.5186 26.7116 40.5186 24.9171 40.5186C23.7638 40.5186 23.2649 41.0056 23.2627 42.1542C23.2593 44.5842 23.2571 47.0141 23.2627 49.444C23.2649 50.416 23.7749 50.9634 24.7505 50.9667C28.4139 50.9787 32.0773 50.9744 35.7418 50.9612C36.6551 50.9579 37.2073 50.4258 37.2129 49.5274C37.2296 47.0426 37.2329 44.5578 37.214 42.0742C37.2062 41.0133 36.6962 40.5372 35.6318 40.5317C33.8551 40.523 32.0795 40.5295 30.3028 40.5295H30.3017ZM26.1405 36.3213V38.466H34.5929V36.3213H26.1405Z" fill="white"/>
<path d="M23.206 15.9901C25.3338 15.9901 27.4616 15.9901 29.5905 15.9901C30.6361 15.9901 30.9617 16.328 30.9595 17.3778C30.955 19.0585 30.9595 20.7391 30.9561 22.4209C30.9539 23.259 30.5961 23.6243 29.7406 23.6254C25.3738 23.632 21.006 23.632 16.6392 23.6265C15.8837 23.6265 15.4948 23.2217 15.4925 22.4604C15.487 20.6886 15.4859 18.9158 15.4925 17.1441C15.4959 16.3861 15.8892 15.9977 16.6548 15.9966C18.8381 15.9912 21.0215 15.9945 23.206 15.9945V15.9901ZM28.8028 21.3436C28.7894 21.3238 28.7772 21.3041 28.7639 21.2843C28.4983 21.3282 28.2327 21.4094 27.9661 21.4094C24.9327 21.4182 21.8982 21.4149 18.8648 21.4138C18.6848 21.4138 18.5037 21.4138 18.3237 21.4138C21.6537 21.4829 24.9827 21.4851 28.3116 21.4763C28.475 21.4763 28.6394 21.3886 28.8028 21.3425V21.3436ZM17.6548 20.6722C17.667 20.6755 17.6792 20.6788 17.6915 20.681V18.3432C17.6792 18.3432 17.667 18.3432 17.6548 18.3432V20.6722ZM28.7383 20.5669C28.7494 20.5691 28.7616 20.5702 28.7728 20.5724V18.3333C28.7616 18.3333 28.7494 18.3333 28.7383 18.3333V20.5669Z" fill="white"/>
<path d="M41.4352 17.9088C41.8396 17.9088 42.2063 17.9 42.573 17.9099C43.8097 17.945 44.6952 18.8094 44.7241 20.0304C44.7441 20.8883 44.743 21.7473 44.723 22.6052C44.6941 23.8371 43.8186 24.6807 42.5641 24.6994C41.7874 24.7115 41.0107 24.7071 40.2341 24.7027C38.7307 24.6939 37.9085 23.9106 37.8385 22.4285C37.8351 22.3572 37.8218 22.287 37.8051 22.1488C37.4551 22.1488 37.1096 22.1532 36.7629 22.1488C35.4929 22.1301 34.5795 21.2986 34.5184 20.048C34.4762 19.1923 34.4762 18.3311 34.514 17.4743C34.5706 16.1842 35.4695 15.3593 36.7796 15.3483C37.5196 15.3417 38.2585 15.3461 38.9985 15.3483C40.5174 15.3494 41.3241 16.1085 41.3996 17.6049C41.403 17.6762 41.4163 17.7464 41.4352 17.9099V17.9088ZM36.6107 20.0919C37.4573 20.0919 38.2462 20.1028 39.034 20.0787C39.1396 20.0754 39.3252 19.8988 39.3296 19.7968C39.3563 19.0881 39.354 18.3783 39.334 17.6696C39.3307 17.5676 39.1852 17.3844 39.1018 17.3822C38.2796 17.3603 37.4562 17.369 36.6118 17.369V20.0919H36.6107ZM42.6774 19.9624C42.303 19.9624 41.9919 19.946 41.6852 19.9723C41.5896 19.98 41.4352 20.0962 41.4252 20.1774C41.3185 21.0342 40.8574 21.6156 40.0907 22.0084C39.9829 22.0632 39.9385 22.3188 39.9474 22.4768C39.9518 22.5492 40.1552 22.6644 40.2718 22.6677C40.9563 22.6863 41.6419 22.6896 42.3263 22.6666C42.4463 22.6622 42.6597 22.5119 42.6619 22.4241C42.6885 21.6255 42.6774 20.8258 42.6774 19.9624Z" fill="white"/>
<path d="M33.0473 28.5478C32.605 28.5478 32.1617 28.5565 31.7195 28.5456C31.0795 28.5302 30.6183 28.1144 30.6106 27.5615C30.6028 26.9955 31.0884 26.5556 31.7528 26.5479C32.6195 26.5391 33.4873 26.5358 34.354 26.5479C35.024 26.5556 35.4929 26.9911 35.484 27.567C35.4751 28.1265 35.0262 28.5247 34.3762 28.5434C34.1551 28.55 33.934 28.5478 33.7117 28.5478C33.4906 28.5478 33.2695 28.5478 33.0473 28.5478Z" fill="white"/>
<path d="M21.8049 26.5457C22.266 26.5457 22.7282 26.5325 23.1882 26.549C23.7605 26.5687 24.2305 27.0295 24.236 27.5473C24.2416 28.0651 23.7738 28.5335 23.1916 28.5434C22.2504 28.5598 21.3093 28.5587 20.3682 28.5401C19.8059 28.5291 19.377 28.0936 19.3615 27.5758C19.3448 27.035 19.7793 26.5753 20.3648 26.5501C20.8437 26.5292 21.3237 26.5457 21.8038 26.5457H21.8049Z" fill="white"/>
<path d="M38.6863 28.5478C38.2251 28.5478 37.764 28.5587 37.3029 28.5445C36.7018 28.5258 36.2629 28.1057 36.254 27.5648C36.2451 27.0262 36.684 26.5632 37.2696 26.5512C38.2096 26.5325 39.1507 26.5336 40.0907 26.5512C40.6596 26.5621 41.1341 27.047 41.1274 27.5604C41.1207 28.0848 40.6563 28.5269 40.0696 28.5445C39.6085 28.5587 39.1474 28.5478 38.6863 28.5467V28.5478Z" fill="white"/>
<path d="M27.3661 28.5445C26.9216 28.5445 26.4772 28.5555 26.0338 28.5412C25.4371 28.5225 24.986 28.0848 24.9882 27.5528C24.9905 27.0383 25.4194 26.5709 25.9749 26.5567C26.9372 26.5314 27.9005 26.5314 28.8628 26.5556C29.4339 26.5698 29.8372 27.0119 29.8417 27.5473C29.8461 28.0815 29.4494 28.494 28.8661 28.539C28.6083 28.5587 28.3483 28.5467 28.0894 28.5478C27.8483 28.5478 27.6083 28.5478 27.3672 28.5478V28.5445H27.3661Z" fill="white"/>
<path d="M43.6375 28.5423C43.3797 28.5423 43.1208 28.5554 42.863 28.5401C42.3063 28.5061 41.8796 28.0706 41.8808 27.555C41.8808 27.0602 42.2808 26.5907 42.7997 26.56C43.3874 26.5259 43.9808 26.5259 44.5686 26.5632C45.0741 26.5951 45.4886 27.0942 45.4753 27.5736C45.4619 28.0607 45.0408 28.5017 44.5219 28.5401C44.2286 28.562 43.9319 28.5445 43.6375 28.5445V28.5423Z" fill="white"/>
<path d="M16.7692 28.5489C16.5114 28.5489 16.2514 28.5609 15.9948 28.5467C15.4381 28.5138 15.0103 28.0782 15.0103 27.5615C15.0103 27.0339 15.4236 26.5775 15.9703 26.5534C16.5226 26.5292 17.0781 26.5281 17.6303 26.5556C18.187 26.5841 18.6037 27.0448 18.5926 27.5637C18.5804 28.0881 18.1592 28.5094 17.5992 28.539C17.3237 28.5533 17.0459 28.5412 16.7692 28.5412C16.7692 28.5434 16.7692 28.5456 16.7692 28.5478V28.5489Z" fill="white"/>
<path d="M31.2684 46.7618C31.2684 47.4441 31.2739 48.0255 31.2672 48.6059C31.2595 49.2882 30.8128 49.7808 30.2194 49.7753C29.6428 49.7709 29.2217 49.3025 29.205 48.63C29.1928 48.1561 29.1883 47.6811 29.2017 47.2083C29.2105 46.8824 29.085 46.7387 28.7472 46.7618C28.5272 46.7771 28.3027 46.7727 28.0839 46.7475C27.5805 46.6894 27.1561 46.2209 27.1572 45.7459C27.1572 45.2852 27.545 44.7794 28.0372 44.7663C29.495 44.7279 30.9539 44.7268 32.4117 44.7586C32.9284 44.7707 33.3162 45.2885 33.2973 45.7788C33.2773 46.2813 32.8728 46.7157 32.3517 46.7552C32.025 46.7804 31.6939 46.7596 31.2684 46.7596V46.7618Z" fill="white"/>
<path d="M28.8028 21.3436C28.6394 21.3907 28.475 21.4774 28.3116 21.4774C24.9827 21.4851 21.6537 21.4829 18.3237 21.4149C18.5037 21.4149 18.6848 21.4149 18.8648 21.4149C21.8982 21.4149 24.9327 21.4193 27.9661 21.4105C28.2316 21.4105 28.4972 21.3293 28.7639 21.2854C28.7772 21.3052 28.7894 21.3249 28.8028 21.3447V21.3436Z" fill="white"/>
<path d="M17.6548 20.6722V18.3432C17.667 18.3432 17.6792 18.3432 17.6915 18.3432V20.681C17.6792 20.6777 17.667 20.6744 17.6548 20.6722Z" fill="white"/>
<path d="M28.7383 20.5669V18.3333C28.7494 18.3333 28.7616 18.3333 28.7728 18.3333V20.5724C28.7616 20.5702 28.7494 20.5691 28.7383 20.5669Z" fill="white"/>
</svg>
