<svg width="70" height="45" viewBox="0 0 70 45" fill="none" xmlns="http://www.w3.org/2000/svg">
<g clip-path="url(#clip0_3149_3969)">
<path d="M43.4647 36.6529C44.1182 35.6508 44.7418 34.6949 45.3654 33.739C47.2313 30.8793 49.0988 28.0196 50.9639 25.1591C53.1375 21.825 55.3071 18.4886 57.4832 15.1562C59.601 11.9128 61.7252 8.67351 63.847 5.43176C64.0681 5.09423 64.2803 4.75022 64.507 4.41593C65.2319 3.34425 66.2652 2.86345 67.5254 3.03343C68.8041 3.20584 69.6763 3.95861 70.0723 5.20755C70.3728 6.15377 70.2035 7.04252 69.6698 7.86165C66.8127 12.2439 63.9499 16.6229 61.0903 21.0035C57.6273 26.3076 54.1644 31.6126 50.7031 36.9184C49.2924 39.0804 47.8929 41.2496 46.4741 43.4068C45.2488 45.2692 42.8548 45.3979 41.3858 43.7143C38.2516 40.1213 35.1054 36.5388 31.9656 32.9506C28.4622 28.948 24.9604 24.9446 21.4586 20.9412C20.9087 20.3122 20.3653 19.6785 19.8121 19.0528C18.65 17.7375 18.7456 15.7657 20.0316 14.6365C21.3622 13.4677 23.3155 13.6288 24.502 14.987C27.4968 18.4166 30.4989 21.8396 33.497 25.2659C35.5103 27.5663 37.5203 29.8691 39.5336 32.1695C40.8278 33.6483 42.1252 35.1239 43.4655 36.6521L43.4647 36.6529Z" fill="white"/>
<path d="M26.3615 44.9854C25.4423 44.9902 24.69 44.6211 24.0753 43.9623C20.3168 39.9321 16.5631 35.8963 12.8046 31.8654C11.0586 29.9932 9.302 28.1307 7.55353 26.2593C5.33778 23.8869 3.11716 21.5201 0.915986 19.134C-0.617063 17.4714 -0.165166 15.0229 1.81897 14.0929C2.99002 13.5441 4.46071 13.8257 5.34668 14.7752C8.53345 18.1934 11.7162 21.6148 14.9037 25.0314C18.0654 28.4205 21.2311 31.8063 24.3944 35.1946C25.81 36.7106 27.2321 38.2218 28.6356 39.7492C30.3023 41.5631 29.4082 44.3945 27.0045 44.9336C26.7964 44.9805 26.5761 44.9692 26.3607 44.9854H26.3615Z" fill="white"/>
<path d="M54.329 3.09941C54.3395 3.69919 54.1687 4.24232 53.8512 4.74254C50.9738 9.26885 48.0956 13.7943 45.2166 18.3198C44.4804 19.4765 43.7483 20.6356 43 21.7842C42.242 22.9473 40.913 23.5107 39.7015 23.2055C38.2996 22.8526 37.3586 21.7866 37.2468 20.3604C37.1934 19.6748 37.3942 19.0273 37.7651 18.4445C39.8894 15.1113 42.0193 11.7813 44.1435 8.4489C45.6182 6.13556 47.0906 3.82061 48.5588 1.50322C49.2739 0.374073 50.5097 -0.182002 51.816 0.0551599C53.0251 0.274514 53.9897 1.2353 54.2594 2.50124C54.3015 2.69712 54.3071 2.90029 54.3298 3.10103L54.329 3.09941Z" fill="white"/>
</g>
<defs>
<clipPath id="clip0_3149_3969">
<rect width="69.8529" height="45" fill="white"/>
</clipPath>
</defs>
</svg>
