<?xml version="1.0" encoding="UTF-8"?>
<svg id="Layer_2" data-name="Layer 2" xmlns="http://www.w3.org/2000/svg" viewBox="0 0 51.84 51.84">
  <defs>
    <style>
      .cls-1 {
        fill: #e31662;
      }

      .cls-2 {
        fill: #fff;
      }
    </style>
  </defs>
  <g id="Layer_1-2" data-name="Layer 1">
    <g>
      <path class="cls-1" d="M25.92,0C11.63,0,0,11.63,0,25.92s11.63,25.92,25.92,25.92,25.92-11.63,25.92-25.92S40.21,0,25.92,0ZM32.46,37.1c-1.04,1.05-2.25,1.79-3.59,2.18v3.79c0,1.6-1.3,2.9-2.9,2.9s-2.9-1.3-2.9-2.9v-3.43h-3.12c-.81,0-1.55-.31-2.14-.9-.6-.62-.9-1.33-.9-2.14v-.1c0-.8.31-1.54.89-2.14.6-.59,1.34-.9,2.15-.9h6.59c.69,0,1.27-.24,1.76-.72.48-.49.71-1.04.71-1.75,0-.78-.33-1.32-1.08-1.77-.2-.12-.96-.48-3.86-1.4-2.04-.65-3.57-1.44-4.57-2.34-1.54-1.4-2.32-3.28-2.32-5.61s.85-4.44,2.53-6.12c1-.99,2.12-1.7,3.36-2.1v-3.39c0-1.6,1.3-2.9,2.9-2.9s2.9,1.3,2.9,2.9v2.95h1.5c.81,0,1.55.31,2.15.89.59.61.88,1.33.88,2.15v.11c0,.81-.29,1.52-.86,2.12-.62.61-1.35.91-2.17.91h-4.7c-.71,0-1.27.23-1.76.73-.49.48-.72,1.05-.72,1.75,0,.78.33,1.32,1.07,1.74.21.12.99.45,3.84,1.27,2.05.61,3.6,1.38,4.6,2.29,1.54,1.4,2.32,3.36,2.32,5.82s-.86,4.44-2.56,6.11Z"/>
      <path class="cls-2" d="M35.02,30.99c0,2.38-.86,4.44-2.56,6.11-1.04,1.05-2.25,1.79-3.59,2.18v3.79c0,1.6-1.3,2.9-2.9,2.9s-2.9-1.3-2.9-2.9v-3.43h-3.12c-.81,0-1.55-.31-2.14-.9-.6-.62-.9-1.33-.9-2.14v-.1c0-.8.31-1.54.89-2.14.6-.59,1.34-.9,2.15-.9h6.59c.69,0,1.27-.24,1.76-.72.48-.49.71-1.04.71-1.75,0-.78-.33-1.32-1.08-1.77-.2-.12-.96-.48-3.86-1.4-2.04-.65-3.57-1.44-4.57-2.34-1.54-1.4-2.32-3.28-2.32-5.61s.85-4.44,2.53-6.12c1-.99,2.12-1.7,3.36-2.1v-3.39c0-1.6,1.3-2.9,2.9-2.9s2.9,1.3,2.9,2.9v2.95h1.5c.81,0,1.55.31,2.15.89.59.61.88,1.33.88,2.15v.11c0,.81-.29,1.52-.86,2.12-.62.61-1.35.91-2.17.91h-4.7c-.71,0-1.27.23-1.76.73-.49.48-.72,1.05-.72,1.75,0,.78.33,1.32,1.07,1.74.21.12.99.45,3.84,1.27,2.05.61,3.6,1.38,4.6,2.29,1.54,1.4,2.32,3.36,2.32,5.82Z"/>
    </g>
  </g>
</svg>