<?xml version="1.0" encoding="UTF-8"?>
<svg id="Layer_2" data-name="Layer 2" xmlns="http://www.w3.org/2000/svg" viewBox="0 0 67.48 67.48">
  <defs>
    <style>
      .cls-1 {
        fill: #e21663;
      }

      .cls-2 {
        fill: #fff;
      }
    </style>
  </defs>
  <g id="Layer_1-2" data-name="Layer 1">
    <circle class="cls-1" cx="33.74" cy="33.74" r="33.74"/>
    <path class="cls-2" d="M38.85,28.58c.39-.41.63-.97.63-1.59s-.26-1.21-.68-1.63c.67-2.02,1.63-3.87,2.86-5.51.4-.53.77-.97,1.1-1.35.78-.92,1.35-1.58,1.05-2.35-.33-.85-1.46-1.5-7.2-.53.21-2.13-.06-3.22-.86-3.58-.87-.39-1.68.33-2.61,1.17-.97.86-2.07,1.85-3.21,1.67-.46-.07-.74-.3-1.07-.57-.43-.35-.96-.78-1.85-.73-1.73.11-3.4,1.95-3.37,3.71.02,1.02.58,1.62,1.29,2.38.31.33.65.7,1.03,1.17,1.01,1.28,1.79,2.8,2.33,4.52-.42.42-.68,1-.68,1.64,0,.56.2,1.07.53,1.47-2.06,1.09-9.64,8-9.65,16.6,0,1.33-.01,4.86,2.34,6.57,1.57,1.13,3.24.76,5.36.29.88-.2,1.88-.42,3.03-.58,4.3-.59,7.54.12,10.13.69,1.41.31,2.67.59,3.83.59s2.27-.29,3.29-1.16c1.65-1.4,2-3.38,2.33-5.3,1.27-7.2-3.45-15.48-9.95-17.58h0ZM39.36,50.75c-1.64-1.89-1.35-4.36-1.33-4.48.05-.34.36-.59.71-.54.34.04.59.36.54.71,0,.02-.3,2.52,1.55,3.99.35.27.71.47,1.06.6l-2.53-.27h0ZM28.86,26.99c0-.58.47-1.06,1.06-1.06h7.26c.58,0,1.06.47,1.06,1.06s-.47,1.06-1.06,1.06h-7.25c-.58,0-1.06-.47-1.06-1.06h-.01ZM35.68,15.71c.19-.09.45-.07.62.08.2.16.21.41.22.5,0,.06,0,.14-.02.3-.01.14-.03.25-.04.32-.31,4.23-.75,6.55-1.28,7.77,0,0-.02.03-.04.06h-2.98s-.03-.05-.04-.06c-.57-.92-1.16-2.36-1.81-4.44-.11-.33.08-.69.41-.79.33-.11.69.08.79.41,1.3,4.09,2.04,4.71,2.22,4.81.19-.16,1.01-1.23,1.51-8.24.02-.08.05-.2.11-.33.08-.15.16-.3.33-.38h0ZM27.85,29.93c.31-.51.51-.84.83-.89.16-.02.35.03.48.16.17.18.13.44.12.53-.01.1-.04.18-.07.25,0,.02-.02.04-.03.06-.42.83-1.13,2.2-1.63,4.36-.51,2.21-.6,4.29-.51,5.38.42-.92.98-2.56,1.42-3.85,1.43-4.2,2.22-6.23,3.22-6.61h.71s.03,0,.04.02v-.02s2.08,0,2.08,0c1.26,1.03,2.35,2.23,3.26,3.59s1.6,2.86,2.07,4.44c.1.33-.09.68-.43.78-.06.02-.12.02-.18.02-.27,0-.52-.18-.6-.45-.43-1.46-1.07-2.84-1.9-4.1-1.04-1.57-2.35-2.9-3.9-3.99.46.52.74,1.63.92,3.56.24,2.51.29,6.44.16,11.71,0,.35-.3.63-.65.62-.35,0-.62-.3-.61-.65.27-10.99-.34-13.61-.66-14.24-.64.71-1.7,3.81-2.34,5.71-1.39,4.1-1.93,5.5-2.95,5.28-.16-.03-.39-.13-.57-.41-.64-1-.42-4.47.18-7.09.38-1.66.89-2.91,1.3-3.78,0,0,0-.02.01-.03.05-.09.12-.22.21-.36h.02ZM39.86,50.85c.16.03.3.07.44.1-.14-.03-.28-.06-.44-.1ZM40.97,51.1c-.09-.02-.19-.04-.3-.07.11.02.21.05.3.07.24.06.44.1.61.14-.17-.04-.37-.08-.61-.14Z"/>
  </g>
</svg>