<?xml version="1.0" encoding="UTF-8"?>
<svg id="Layer_2" data-name="Layer 2" xmlns="http://www.w3.org/2000/svg" viewBox="0 0 92.22 122.92">
  <defs>
    <style>
      .cls-1 {
        fill: #fff;
      }
    </style>
  </defs>
  <g id="Layer_1-2" data-name="Layer 1">
    <path class="cls-1" d="M61.54,50.31c1.18-1.25,1.91-2.93,1.91-4.79s-.79-3.66-2.05-4.93c2.02-6.1,4.91-11.7,8.63-16.65,1.2-1.61,2.32-2.92,3.31-4.08,2.36-2.78,4.07-4.78,3.16-7.1-1-2.57-4.4-4.52-21.76-1.61.64-6.44-.17-9.72-2.6-10.82-2.63-1.18-5.06,1-7.88,3.52-2.93,2.61-6.24,5.58-9.69,5.03-1.39-.22-2.24-.91-3.22-1.72-1.29-1.05-2.89-2.36-5.59-2.19-5.23.32-10.27,5.88-10.18,11.22.06,3.08,1.76,4.9,3.91,7.2.93.99,1.97,2.11,3.1,3.53,3.05,3.87,5.41,8.47,7.03,13.66-1.26,1.27-2.05,3.02-2.05,4.94,0,1.68.6,3.22,1.59,4.43C22.95,53.25.05,74.11,0,100.08c-.01,4.02-.04,14.69,7.08,19.83,4.73,3.42,9.79,2.3,16.2.88,2.66-.59,5.68-1.26,9.15-1.74,12.99-1.79,22.76.36,30.61,2.09,4.25.94,8.06,1.78,11.56,1.78s6.87-.89,9.94-3.49c4.97-4.22,6.03-10.21,7.05-16.02,3.84-21.76-10.41-46.74-30.05-53.1ZM63.09,117.27c-4.96-5.7-4.07-13.18-4.03-13.53.14-1.04,1.09-1.78,2.13-1.64,1.04.13,1.78,1.09,1.64,2.13-.01.07-.92,7.61,4.69,12.05,1.05.83,2.14,1.41,3.2,1.82l-7.63-.83h0ZM31.37,45.52c0-1.76,1.43-3.19,3.19-3.19h11.44s.06.01.09.01c.06,0,.12,0,.17-.01h10.2c1.76,0,3.19,1.43,3.19,3.19s-1.43,3.19-3.19,3.19h-21.9c-1.76,0-3.19-1.43-3.19-3.19ZM51.98,11.44c.58-.27,1.35-.2,1.87.24.59.49.64,1.25.65,1.52.01.17-.01.41-.05.9-.04.41-.08.74-.11.97-.95,12.77-2.26,19.77-3.88,23.46,0,0-.05.09-.11.19h-8.99c-.05-.09-.1-.16-.11-.19-1.72-2.77-3.49-7.14-5.48-13.41-.32-1,.23-2.07,1.23-2.38,1-.32,2.07.23,2.39,1.23,3.92,12.34,6.15,14.24,6.69,14.53.58-.47,3.06-3.71,4.57-24.9.05-.24.14-.6.34-1,.23-.44.48-.92,1-1.16ZM28.32,54.39c.94-1.55,1.54-2.53,2.5-2.68.48-.07,1.07.08,1.44.47.5.53.4,1.32.37,1.59-.04.3-.12.55-.21.74-.02.06-.05.12-.08.17-1.28,2.5-3.42,6.65-4.91,13.16-1.54,6.68-1.82,12.95-1.53,16.26,1.27-2.77,2.97-7.73,4.3-11.64,4.32-12.69,6.71-18.83,9.73-19.95h2.15s.09.03.13.05c-.02-.01-.03-.03-.04-.05h6.32c3.81,3.11,7.11,6.75,9.84,10.85,2.74,4.12,4.84,8.63,6.24,13.41.29,1.01-.28,2.06-1.29,2.36-.18.05-.36.07-.54.07-.82,0-1.58-.53-1.82-1.36-1.29-4.41-3.22-8.57-5.75-12.37-3.14-4.73-7.11-8.77-11.79-12.05,1.4,1.57,2.24,4.92,2.79,10.75.72,7.57.88,19.46.49,35.36-.03,1.05-.9,1.89-1.95,1.86-1.05-.03-1.88-.9-1.85-1.95.82-33.18-1.02-41.12-1.99-43.01-1.93,2.15-5.12,11.5-7.08,17.26-4.21,12.37-5.83,16.62-8.91,15.96-.48-.1-1.17-.4-1.71-1.25-1.93-3.02-1.27-13.51.55-21.41,1.16-5,2.69-8.78,3.94-11.42.01-.03.03-.06.04-.09.15-.28.35-.67.62-1.09ZM64.6,117.59c.47.1.91.2,1.32.29-.41-.09-.85-.19-1.32-.29ZM67.96,118.33c-.27-.06-.57-.13-.91-.2.34.08.65.14.91.2.74.17,1.34.31,1.86.42-.51-.12-1.12-.26-1.86-.42Z"/>
  </g>
</svg>