<svg width="22" height="22" viewBox="0 0 22 22" fill="none" xmlns="http://www.w3.org/2000/svg">
<g clip-path="url(#clip0_3126_7535)">
<path d="M10.9476 -4.19924e-05C16.9784 -0.0365238 21.9272 4.86955 22.0001 10.9562C22.0701 16.9071 17.1213 21.9722 11.2071 22.0014C5.03496 22.0306 0.0234251 17.2238 9.5282e-05 11.251C-0.0246926 4.98629 4.78999 0.0364398 10.9476 -4.19924e-05ZM10.9811 15.1574C12.0981 15.1574 13.215 15.1749 14.3319 15.153C15.8206 15.1239 16.8836 14.044 16.9069 12.5482C16.9229 11.5764 16.9142 10.6045 16.9084 9.63262C16.8996 8.03034 15.9256 6.9067 14.3406 6.86C12.1083 6.79579 9.87297 6.80017 7.6406 6.85708C6.08042 6.89794 5.08599 7.99969 5.06704 9.54798C5.05537 10.5447 5.051 11.5413 5.06704 12.5366C5.09182 14.0688 6.16208 15.1326 7.70184 15.153C8.79397 15.1676 9.88756 15.156 10.9797 15.156L10.9811 15.1574Z" fill="#3C66ED"/>
<path d="M10.9802 15.1577C9.88812 15.1577 8.79454 15.1693 7.70241 15.1547C6.16265 15.1329 5.09385 14.0705 5.0676 12.5383C5.05156 11.5416 5.05448 10.5449 5.0676 9.54968C5.08656 8.00139 6.08099 6.89964 7.64117 6.85878C9.87354 6.80041 12.1103 6.79603 14.3412 6.8617C15.9262 6.90839 16.9002 8.03057 16.9089 9.63431C16.9148 10.6062 16.9221 11.5781 16.9075 12.5499C16.8827 14.0442 15.8197 15.1241 14.3324 15.1547C13.2155 15.1766 12.0986 15.1591 10.9817 15.1591L10.9802 15.1577ZM13.1805 11.1272C12.0228 10.5055 11.04 9.96119 10.0354 9.46358C9.94062 9.41688 9.56005 9.65183 9.55421 9.76711C9.51193 10.6106 9.51047 11.4599 9.55859 12.3033C9.56588 12.4288 9.9654 12.6798 10.0748 12.6302C11.0604 12.191 12.0213 11.6977 13.1805 11.1272Z" fill="white"/>
<path d="M13.179 11.1269C12.0198 11.6975 11.0589 12.1907 10.0732 12.63C9.96238 12.6796 9.56432 12.4286 9.55703 12.3031C9.50891 11.4596 9.51183 10.6118 9.55265 9.76686C9.55849 9.65158 9.93905 9.41664 10.0338 9.46333C11.0385 9.96095 12.0212 10.5053 13.179 11.1269Z" fill="#3C66ED"/>
</g>
<defs>
<clipPath id="clip0_3126_7535">
<rect width="22" height="22" fill="white"/>
</clipPath>
</defs>
</svg>
